<svg width="496" height="496" viewBox="0 0 496 496" fill="none" xmlns="http://www.w3.org/2000/svg">
<rect x="55" y="69" width="390" height="364" fill="white"/>
<mask id="path-2-outside-1" maskUnits="userSpaceOnUse" x="0" y="0" width="497" height="496" fill="black">
<rect fill="white" width="497" height="496"/>
<path d="M472 43.9965C472 32.9508 463.046 24 452 24H43.9992C32.9539 24 24 32.9499 24 43.9952C24.0001 47.4027 24.0001 51.4052 24.0001 56.3L24.0001 452C24.0001 463.046 32.9519 472 43.9976 472C47.1076 472 50.8819 472 55.9001 472H452C463.046 472 472 463.051 472 452.005C472 449.178 472 445.57 472 439.7V56.3C472 49.7981 472 46.5385 472 43.9965ZM159.4 408H93.0001V194.2H159.5V408H159.4ZM126.2 165C104.9 165 87.7001 147.7 87.7001 126.5C87.7001 105.3 104.9 88 126.2 88C147.4 88 164.7 105.3 164.7 126.5C164.7 147.8 147.5 165 126.2 165ZM408.3 408H341.9V304C341.9 279.2 341.4 247.3 307.4 247.3C272.8 247.3 267.5 274.3 267.5 302.2V408H201.1V194.2H264.8V223.4H265.7C274.6 206.6 296.3 188.9 328.6 188.9C395.8 188.9 408.3 233.2 408.3 290.8V408Z"/>
</mask>
<path d="M472 43.9965C472 32.9508 463.046 24 452 24H43.9992C32.9539 24 24 32.9499 24 43.9952C24.0001 47.4027 24.0001 51.4052 24.0001 56.3L24.0001 452C24.0001 463.046 32.9519 472 43.9976 472C47.1076 472 50.8819 472 55.9001 472H452C463.046 472 472 463.051 472 452.005C472 449.178 472 445.57 472 439.7V56.3C472 49.7981 472 46.5385 472 43.9965ZM159.4 408H93.0001V194.2H159.5V408H159.4ZM126.2 165C104.9 165 87.7001 147.7 87.7001 126.5C87.7001 105.3 104.9 88 126.2 88C147.4 88 164.7 105.3 164.7 126.5C164.7 147.8 147.5 165 126.2 165ZM408.3 408H341.9V304C341.9 279.2 341.4 247.3 307.4 247.3C272.8 247.3 267.5 274.3 267.5 302.2V408H201.1V194.2H264.8V223.4H265.7C274.6 206.6 296.3 188.9 328.6 188.9C395.8 188.9 408.3 233.2 408.3 290.8V408Z" fill="#333333"/>
<path d="M472 43.9965C472 32.9508 463.046 24 452 24H43.9992C32.9539 24 24 32.9499 24 43.9952C24.0001 47.4027 24.0001 51.4052 24.0001 56.3L24.0001 452C24.0001 463.046 32.9519 472 43.9976 472C47.1076 472 50.8819 472 55.9001 472H452C463.046 472 472 463.051 472 452.005C472 449.178 472 445.57 472 439.7V56.3C472 49.7981 472 46.5385 472 43.9965ZM159.4 408H93.0001V194.2H159.5V408H159.4ZM126.2 165C104.9 165 87.7001 147.7 87.7001 126.5C87.7001 105.3 104.9 88 126.2 88C147.4 88 164.7 105.3 164.7 126.5C164.7 147.8 147.5 165 126.2 165ZM408.3 408H341.9V304C341.9 279.2 341.4 247.3 307.4 247.3C272.8 247.3 267.5 274.3 267.5 302.2V408H201.1V194.2H264.8V223.4H265.7C274.6 206.6 296.3 188.9 328.6 188.9C395.8 188.9 408.3 233.2 408.3 290.8V408Z" stroke="white" stroke-width="48" mask="url(#path-2-outside-1)"/>
</svg>
