<svg width="468" height="468" viewBox="0 0 468 468" fill="none" xmlns="http://www.w3.org/2000/svg">
<rect x="41" y="55" width="390" height="364" fill="white"/>
<path d="M389.3 276.8V389H332.9V290C332.9 277.817 332.839 262.635 328.05 250.513C325.599 244.309 321.824 238.65 316.001 234.575C310.166 230.492 302.701 228.3 293.4 228.3C284.1 228.3 276.407 230.117 270.148 233.58C263.86 237.059 259.318 242.036 256.097 247.872C249.786 259.307 248.5 274.158 248.5 288.2V389H192.1V185.2H245.8V209.4V214.4H250.8H251.7H254.709L256.118 211.741C264.192 196.5 284.237 179.9 314.6 179.9C346.965 179.9 365.042 190.46 375.421 206.917C386.132 223.902 389.3 248.113 389.3 276.8ZM426 5H41.9C21.4779 5 5 21.7996 5 42.3V425.7C5 446.2 21.4779 463 41.9 463H426C446.402 463 463 446.221 463 425.7V42.3C463 21.7791 446.402 5 426 5ZM140.5 389H84V185.2H140.5V389ZM112.2 146C93.6699 146 78.7 130.947 78.7 112.5C78.7 94.053 93.6699 79 112.2 79C130.639 79 145.7 94.0614 145.7 112.5C145.7 131.039 130.739 146 112.2 146Z" fill="#333333" stroke="white" stroke-width="10"/>
</svg>
