<svg width="497" height="496" viewBox="0 0 497 496" fill="none" xmlns="http://www.w3.org/2000/svg">
<rect x="53.9966" y="66" width="390" height="364" fill="white"/>
<mask id="path-2-outside-1" maskUnits="userSpaceOnUse" x="0.996582" y="0" width="496" height="496" fill="black">
<rect fill="white" x="0.996582" width="496" height="496"/>
<path d="M472.997 43.9967C472.997 32.951 464.042 24 452.997 24H44.9981C33.9518 24 24.9974 32.954 24.9972 44.0003C24.997 50.6121 24.9966 58.0493 24.9966 72V424C24.9966 439.459 24.9972 445.22 24.9974 451.997C24.9978 463.043 33.952 472 44.9983 472H452.997C464.042 472 472.997 463.021 472.997 451.975C472.997 437.553 472.997 444.393 472.997 424V72C472.997 58.9473 472.997 50.748 472.997 43.9967ZM136.997 408C110.487 408 88.9966 386.51 88.9966 360C88.9966 333.49 110.487 312 136.997 312C163.507 312 184.997 333.49 184.997 360C184.997 386.51 163.507 408 136.997 408ZM294.53 408H260.195C254.184 408 249.144 403.364 248.753 397.366C243.539 317.316 179.51 253.446 99.6296 248.243C93.6326 247.853 88.9966 242.812 88.9966 236.802V202.467C88.9966 195.932 94.4646 190.69 100.991 191.042C211.537 197.016 299.988 285.578 305.955 396.006C306.307 402.532 301.065 408 294.53 408ZM397.557 408H363.223C357.062 408 352.048 403.118 351.796 396.962C346.198 260.427 236.592 150.801 100.036 145.202C93.8786 144.949 88.9966 139.935 88.9966 133.774V99.44C88.9966 92.986 94.3346 87.776 100.784 88.008C268.614 94.033 402.994 229.199 408.989 396.213C409.221 402.662 404.011 408 397.557 408Z"/>
</mask>
<path d="M472.997 43.9967C472.997 32.951 464.042 24 452.997 24H44.9981C33.9518 24 24.9974 32.954 24.9972 44.0003C24.997 50.6121 24.9966 58.0493 24.9966 72V424C24.9966 439.459 24.9972 445.22 24.9974 451.997C24.9978 463.043 33.952 472 44.9983 472H452.997C464.042 472 472.997 463.021 472.997 451.975C472.997 437.553 472.997 444.393 472.997 424V72C472.997 58.9473 472.997 50.748 472.997 43.9967ZM136.997 408C110.487 408 88.9966 386.51 88.9966 360C88.9966 333.49 110.487 312 136.997 312C163.507 312 184.997 333.49 184.997 360C184.997 386.51 163.507 408 136.997 408ZM294.53 408H260.195C254.184 408 249.144 403.364 248.753 397.366C243.539 317.316 179.51 253.446 99.6296 248.243C93.6326 247.853 88.9966 242.812 88.9966 236.802V202.467C88.9966 195.932 94.4646 190.69 100.991 191.042C211.537 197.016 299.988 285.578 305.955 396.006C306.307 402.532 301.065 408 294.53 408ZM397.557 408H363.223C357.062 408 352.048 403.118 351.796 396.962C346.198 260.427 236.592 150.801 100.036 145.202C93.8786 144.949 88.9966 139.935 88.9966 133.774V99.44C88.9966 92.986 94.3346 87.776 100.784 88.008C268.614 94.033 402.994 229.199 408.989 396.213C409.221 402.662 404.011 408 397.557 408Z" fill="#333333"/>
<path d="M472.997 43.9967C472.997 32.951 464.042 24 452.997 24H44.9981C33.9518 24 24.9974 32.954 24.9972 44.0003C24.997 50.6121 24.9966 58.0493 24.9966 72V424C24.9966 439.459 24.9972 445.22 24.9974 451.997C24.9978 463.043 33.952 472 44.9983 472H452.997C464.042 472 472.997 463.021 472.997 451.975C472.997 437.553 472.997 444.393 472.997 424V72C472.997 58.9473 472.997 50.748 472.997 43.9967ZM136.997 408C110.487 408 88.9966 386.51 88.9966 360C88.9966 333.49 110.487 312 136.997 312C163.507 312 184.997 333.49 184.997 360C184.997 386.51 163.507 408 136.997 408ZM294.53 408H260.195C254.184 408 249.144 403.364 248.753 397.366C243.539 317.316 179.51 253.446 99.6296 248.243C93.6326 247.853 88.9966 242.812 88.9966 236.802V202.467C88.9966 195.932 94.4646 190.69 100.991 191.042C211.537 197.016 299.988 285.578 305.955 396.006C306.307 402.532 301.065 408 294.53 408ZM397.557 408H363.223C357.062 408 352.048 403.118 351.796 396.962C346.198 260.427 236.592 150.801 100.036 145.202C93.8786 144.949 88.9966 139.935 88.9966 133.774V99.44C88.9966 92.986 94.3346 87.776 100.784 88.008C268.614 94.033 402.994 229.199 408.989 396.213C409.221 402.662 404.011 408 397.557 408Z" stroke="white" stroke-width="48" mask="url(#path-2-outside-1)"/>
</svg>
