<svg width="468" height="468" viewBox="0 0 468 468" fill="none" xmlns="http://www.w3.org/2000/svg">
<rect x="39" y="52" width="390" height="364" fill="white"/>
<path d="M84.958 229.254L84.9575 229.254C81.6423 229.038 79 226.229 79 222.802V188.467C79 184.764 82.0968 181.839 85.7242 182.035C193.719 187.871 280.136 274.395 285.965 382.275C286.161 385.903 283.236 389 279.533 389H245.198C241.771 389 238.962 386.358 238.745 383.041C233.368 300.482 167.34 234.62 84.958 229.254ZM341.795 382.758L341.795 382.757L85.039 131.202L85.2443 126.206C85.2441 126.206 85.244 126.206 85.2438 126.206C81.7253 126.061 79 123.212 79 119.774V85.44C79 81.7825 82.0235 78.8758 85.6072 79.0048L85.6076 79.0048C250.809 84.9354 383.094 217.991 388.995 382.392L388.995 382.393C389.124 385.976 386.217 389 382.56 389H348.226C344.787 389 341.939 386.274 341.795 382.758ZM410 5H58C28.7286 5 5 28.7286 5 58V410C5 439.271 28.7286 463 58 463H410C439.271 463 463 439.271 463 410V58C463 28.7286 439.271 5 410 5ZM122 389C98.2514 389 79 369.749 79 346C79 322.251 98.2514 303 122 303C145.749 303 165 322.251 165 346C165 369.749 145.749 389 122 389Z" fill="#333333" stroke="white" stroke-width="10"/>
</svg>
