<svg width="496" height="496" viewBox="0 0 496 496" fill="none" xmlns="http://www.w3.org/2000/svg">
<rect x="53.0005" y="66" width="390" height="364" fill="white"/>
<mask id="path-2-outside-1" maskUnits="userSpaceOnUse" x="-0.000976562" y="0" width="497" height="496" fill="black">
<rect fill="white" x="-0.000976562" width="497" height="496"/>
<path d="M472 43.9993C472 32.9536 463.046 24 452 24H44.0002C32.9541 24 23.9997 32.9529 24 43.999C24.0002 50.6765 24.0003 58.5823 24.0003 72L24.0003 452C24.0003 463.046 32.962 472 44.0077 472C52.2429 472 54.4178 472 72.0003 472H424C440.111 472 444.949 472 451.996 472C463.042 472 472 463.046 472 452V72C472 57.7692 472 50.6037 472 43.9993ZM375.1 182.8C375.3 185.6 375.3 188.5 375.3 191.3C375.3 278 309.3 377.9 188.7 377.9C151.5 377.9 117 367.1 88.0003 348.5C93.3003 349.1 98.4003 349.3 103.8 349.3C134.5 349.3 162.7 338.9 185.2 321.3C156.4 320.7 132.2 301.8 123.9 275.8C134 277.3 143.1 277.3 153.5 274.6C123.5 268.5 101 242.1 101 210.2V209.4C109.7 214.3 119.9 217.3 130.6 217.7C121.605 211.716 114.23 203.599 109.135 194.072C104.04 184.544 101.383 173.904 101.4 163.1C101.4 150.9 104.6 139.7 110.3 130C142.6 169.8 191.1 195.8 245.5 198.6C236.2 154.1 269.5 118 309.5 118C328.4 118 345.4 125.9 357.4 138.7C372.2 135.9 386.4 130.4 399 122.9C394.1 138.1 383.8 150.9 370.2 159C383.4 157.6 396.2 153.9 408 148.8C399.1 161.9 387.9 173.5 375.1 182.8Z"/>
</mask>
<path d="M472 43.9993C472 32.9536 463.046 24 452 24H44.0002C32.9541 24 23.9997 32.9529 24 43.999C24.0002 50.6765 24.0003 58.5823 24.0003 72L24.0003 452C24.0003 463.046 32.962 472 44.0077 472C52.2429 472 54.4178 472 72.0003 472H424C440.111 472 444.949 472 451.996 472C463.042 472 472 463.046 472 452V72C472 57.7692 472 50.6037 472 43.9993ZM375.1 182.8C375.3 185.6 375.3 188.5 375.3 191.3C375.3 278 309.3 377.9 188.7 377.9C151.5 377.9 117 367.1 88.0003 348.5C93.3003 349.1 98.4003 349.3 103.8 349.3C134.5 349.3 162.7 338.9 185.2 321.3C156.4 320.7 132.2 301.8 123.9 275.8C134 277.3 143.1 277.3 153.5 274.6C123.5 268.5 101 242.1 101 210.2V209.4C109.7 214.3 119.9 217.3 130.6 217.7C121.605 211.716 114.23 203.599 109.135 194.072C104.04 184.544 101.383 173.904 101.4 163.1C101.4 150.9 104.6 139.7 110.3 130C142.6 169.8 191.1 195.8 245.5 198.6C236.2 154.1 269.5 118 309.5 118C328.4 118 345.4 125.9 357.4 138.7C372.2 135.9 386.4 130.4 399 122.9C394.1 138.1 383.8 150.9 370.2 159C383.4 157.6 396.2 153.9 408 148.8C399.1 161.9 387.9 173.5 375.1 182.8Z" fill="#333333"/>
<path d="M472 43.9993C472 32.9536 463.046 24 452 24H44.0002C32.9541 24 23.9997 32.9529 24 43.999C24.0002 50.6765 24.0003 58.5823 24.0003 72L24.0003 452C24.0003 463.046 32.962 472 44.0077 472C52.2429 472 54.4178 472 72.0003 472H424C440.111 472 444.949 472 451.996 472C463.042 472 472 463.046 472 452V72C472 57.7692 472 50.6037 472 43.9993ZM375.1 182.8C375.3 185.6 375.3 188.5 375.3 191.3C375.3 278 309.3 377.9 188.7 377.9C151.5 377.9 117 367.1 88.0003 348.5C93.3003 349.1 98.4003 349.3 103.8 349.3C134.5 349.3 162.7 338.9 185.2 321.3C156.4 320.7 132.2 301.8 123.9 275.8C134 277.3 143.1 277.3 153.5 274.6C123.5 268.5 101 242.1 101 210.2V209.4C109.7 214.3 119.9 217.3 130.6 217.7C121.605 211.716 114.23 203.599 109.135 194.072C104.04 184.544 101.383 173.904 101.4 163.1C101.4 150.9 104.6 139.7 110.3 130C142.6 169.8 191.1 195.8 245.5 198.6C236.2 154.1 269.5 118 309.5 118C328.4 118 345.4 125.9 357.4 138.7C372.2 135.9 386.4 130.4 399 122.9C394.1 138.1 383.8 150.9 370.2 159C383.4 157.6 396.2 153.9 408 148.8C399.1 161.9 387.9 173.5 375.1 182.8Z" stroke="white" stroke-width="48" mask="url(#path-2-outside-1)"/>
</svg>
