<svg width="468" height="468" viewBox="0 0 468 468" fill="none" xmlns="http://www.w3.org/2000/svg">
<rect x="39" y="52" width="390" height="364" fill="white"/>
<path d="M358.161 164.755L355.915 166.387L356.113 169.156C356.298 171.748 356.3 174.467 356.3 177.3C356.3 261.849 291.965 358.9 174.7 358.9C145.737 358.9 118.468 352.178 94.2755 340.229C124.392 339.268 152.028 328.645 174.281 311.238L185.332 302.593L171.304 302.301C147.488 301.805 127.093 287.778 117.57 267.652C125.128 268.123 132.57 267.565 140.756 265.44L140.496 255.7C115.124 250.541 95.5625 229.666 92.437 203.557C99.8691 206.573 107.999 208.382 116.413 208.697L134.136 209.359L119.369 199.537C111.061 194.01 104.25 186.513 99.5438 177.714C94.8379 168.914 92.3837 159.087 92.4 149.108V149.1C92.4 140.418 94.1457 132.312 97.3357 124.969C130.408 162.542 178.086 186.857 231.243 189.593L237.721 189.927L236.394 183.577C227.77 142.313 258.539 109 295.5 109C312.973 109 328.666 116.295 339.752 128.12L341.631 130.123L344.329 129.613C354.775 127.637 364.925 124.37 374.459 120.04C369.345 128.492 362.202 135.605 353.641 140.704L356.727 149.972C364.49 149.149 372.098 147.566 379.443 145.398C373.069 152.602 365.918 159.119 358.161 164.755ZM410 5H58C28.7386 5 5 28.7386 5 58V410C5 439.261 28.7386 463 58 463H410C439.261 463 463 439.261 463 410V58C463 28.7386 439.261 5 410 5Z" fill="#333333" stroke="white" stroke-width="10"/>
</svg>
